<svg height="32" viewBox="0 0 32 32" width="32" xmlns="http://www.w3.org/2000/svg"><path d="m28.4473 16.1055-5.4473-2.7237v-6.3818a1 1 0 0 0 -.5527-.8945l-6-3a1.0008 1.0008 0 0 0 -.8946 0l-6 3a1 1 0 0 0 -.5527.8945v6.3818l-5.4473 2.7237a1 1 0 0 0 -.5527.8945v7a1 1 0 0 0 .5527.8945l6 3a1.001 1.001 0 0 0 .8946 0l5.5527-2.7763 5.5527 2.7763a1.001 1.001 0 0 0 .8946 0l6-3a1 1 0 0 0 .5527-.8945v-7a1 1 0 0 0 -.5527-.8945zm-7.4473-2.7237-4 2v-4.7636l4-2zm-5-8.2636 3.7637 1.8818-3.7637 1.8818-3.7637-1.8818zm-5 3.5 4 2v4.7636l-4-2zm-2 16.7636-4-2v-4.7636l4 2zm1-6.5-3.7637-1.8818 3.7637-1.8818 3.7637 1.8818zm1 1.7364 4-2v4.7636l-4 2zm10 4.7636-4-2v-4.7636l4 2zm1-6.5-3.7637-1.8818 3.7637-1.8818 3.7637 1.8818zm5 4.5-4 2v-4.7636l4-2z"/><path d="m0 0h32v32h-32z" fill="none"/></svg>